<svg width="48" height="48" viewBox="0 0 48 48" fill="none" xmlns="http://www.w3.org/2000/svg">
  <rect width="48" height="48" rx="8" fill="#000000"/>
  <path d="M24 10C16.268 10 10 16.268 10 24C10 31.732 16.268 38 24 38C31.732 38 38 31.732 38 24C38 16.268 31.732 10 24 10ZM24 14C29.523 14 34 18.477 34 24C34 29.523 29.523 34 24 34C18.477 34 14 29.523 14 24C14 18.477 18.477 14 24 14Z" fill="white"/>
  <path d="M24 19C21.239 19 19 21.239 19 24C19 26.761 21.239 29 24 29C26.761 29 29 26.761 29 24C29 21.239 26.761 19 24 19ZM24 21C25.657 21 27 22.343 27 24C27 25.657 25.657 27 24 27C22.343 27 21 25.657 21 24C21 22.343 22.343 21 24 21Z" fill="#0066CC"/>
  <path d="M24 14L24 16M32 24L30 24M24 32L24 30M16 24L18 24M29.657 18.343L28.243 19.757M29.657 29.657L28.243 28.243M18.343 29.657L19.757 28.243M18.343 18.343L19.757 19.757" stroke="#0066CC" stroke-width="2" stroke-linecap="round" stroke-linejoin="round"/>
</svg>
